<svg width="26" height="25" viewBox="0 0 26 25" fill="none" xmlns="http://www.w3.org/2000/svg">
<g clip-path="url(#clip0_37_297)">
<path fill-rule="evenodd" clip-rule="evenodd" d="M15.2689 3.20514C15.2689 3.13804 15.2423 3.07369 15.1948 3.02625C15.1474 2.9788 15.083 2.95215 15.0159 2.95215H7.93227C7.19421 2.95215 6.48637 3.24534 5.96449 3.76723C5.4426 4.28912 5.1494 4.99695 5.1494 5.73502V19.9023C5.1494 20.6404 5.4426 21.3482 5.96449 21.8701C6.48637 22.392 7.19421 22.6852 7.93227 22.6852H18.0518C18.7899 22.6852 19.4977 22.392 20.0196 21.8701C20.5415 21.3482 20.8347 20.6404 20.8347 19.9023V9.93158C20.8347 9.86449 20.808 9.80014 20.7606 9.75269C20.7131 9.70525 20.6488 9.6786 20.5817 9.6786H16.0279C15.8266 9.6786 15.6336 9.59863 15.4912 9.4563C15.3489 9.31397 15.2689 9.12092 15.2689 8.91963V3.20514ZM16.0279 13.0717C16.2292 13.0717 16.4222 13.1516 16.5646 13.294C16.7069 13.4363 16.7869 13.6293 16.7869 13.8306C16.7869 14.0319 16.7069 14.225 16.5646 14.3673C16.4222 14.5096 16.2292 14.5896 16.0279 14.5896H9.95618C9.75489 14.5896 9.56184 14.5096 9.41951 14.3673C9.27717 14.225 9.19721 14.0319 9.19721 13.8306C9.19721 13.6293 9.27717 13.4363 9.41951 13.294C9.56184 13.1516 9.75489 13.0717 9.95618 13.0717H16.0279ZM16.0279 17.1195C16.2292 17.1195 16.4222 17.1994 16.5646 17.3418C16.7069 17.4841 16.7869 17.6772 16.7869 17.8784C16.7869 18.0797 16.7069 18.2728 16.5646 18.4151C16.4222 18.5574 16.2292 18.6374 16.0279 18.6374H9.95618C9.75489 18.6374 9.56184 18.5574 9.41951 18.4151C9.27717 18.2728 9.19721 18.0797 9.19721 17.8784C9.19721 17.6772 9.27717 17.4841 9.41951 17.3418C9.56184 17.1994 9.75489 17.1195 9.95618 17.1195H16.0279Z" fill="white"/>
<path d="M16.7869 3.53327C16.7869 3.34707 16.9822 3.22867 17.1269 3.34505C17.2493 3.44422 17.3596 3.55958 17.4537 3.69113L20.5027 7.9383C20.5716 8.03544 20.4967 8.16093 20.3773 8.16093H17.0398C16.9727 8.16093 16.9084 8.13427 16.861 8.08683C16.8135 8.03938 16.7869 7.97503 16.7869 7.90794V3.53327Z" fill="white"/>
</g>
<defs>
<clipPath id="clip0_37_297">
<rect width="24.2869" height="24.2869" fill="white" transform="translate(0.848606 0.675293)"/>
</clipPath>
</defs>
</svg>
