<svg width="83" height="28" viewBox="0 0 83 28" fill="none" xmlns="http://www.w3.org/2000/svg">
<path d="M13.5491 27.425C11.7073 27.425 9.98353 27.0945 8.37786 26.4333C6.79579 25.7485 5.40263 24.804 4.19838 23.5997C2.99412 22.3719 2.04961 20.9315 1.36483 19.2786C0.680061 17.6021 0.337674 15.7721 0.337674 13.7886C0.337674 11.8051 0.680061 9.98693 1.36483 8.33403C2.04961 6.65751 2.99412 5.21713 4.19838 4.01287C5.40263 2.785 6.79579 1.84049 8.37786 1.17933C9.98353 0.518166 11.7073 0.187586 13.5491 0.187586C15.3909 0.187586 17.1028 0.529972 18.6849 1.21475C20.2905 1.87591 21.6955 2.82042 22.8998 4.04829C24.104 5.25255 25.0485 6.68113 25.7333 8.33403C26.4181 9.98693 26.7605 11.8051 26.7605 13.7886C26.7605 15.7721 26.4181 17.6021 25.7333 19.2786C25.0485 20.9315 24.104 22.3719 22.8998 23.5997C21.6955 24.804 20.2905 25.7485 18.6849 26.4333C17.1028 27.0945 15.3909 27.425 13.5491 27.425ZM13.5491 24.7686C15.0839 24.7686 16.4771 24.4852 17.7286 23.9185C19.0036 23.3518 20.1016 22.5608 21.0225 21.5454C21.9435 20.5301 22.6518 19.3612 23.1477 18.0389C23.6672 16.7166 23.9269 15.2998 23.9269 13.7886C23.9269 12.301 23.6672 10.896 23.1477 9.5737C22.6518 8.25138 21.9435 7.08254 21.0225 6.06719C20.1016 5.05184 19.0036 4.26081 17.7286 3.6941C16.4771 3.12739 15.0839 2.84403 13.5491 2.84403C12.0142 2.84403 10.6093 3.12739 9.33418 3.6941C8.0827 4.26081 6.9965 5.05184 6.0756 6.06719C5.1547 7.08254 4.43451 8.25138 3.91502 9.5737C3.41915 10.896 3.17122 12.301 3.17122 13.7886C3.17122 15.2998 3.41915 16.7166 3.91502 18.0389C4.43451 19.3612 5.1547 20.5301 6.0756 21.5454C6.9965 22.5608 8.0945 23.3518 9.3696 23.9185C10.6447 24.4852 12.0379 24.7686 13.5491 24.7686ZM33.771 27V10.6717H29.9811V8.01525H33.771V6.31512C33.771 4.9928 34.0662 3.883 34.6565 2.98571C35.2468 2.06481 36.026 1.36823 36.9942 0.895971C37.9623 0.423714 39.0013 0.187586 40.1111 0.187586C40.3472 0.187586 40.6187 0.211198 40.9257 0.258424C41.2327 0.282038 41.4806 0.317457 41.6695 0.364682V2.7732C41.5042 2.72597 41.2799 2.70236 40.9965 2.70236C40.7132 2.67874 40.5125 2.66694 40.3944 2.66694C39.261 2.66694 38.3165 2.93848 37.5609 3.48158C36.8053 4.02468 36.4275 4.96919 36.4275 6.31512V8.01525H47.0887V10.6717H36.4275V27H33.771ZM47.3366 27V10.6717H43.5467V8.01525H47.3366V6.31512C47.3366 4.9928 47.6318 3.883 48.2221 2.98571C48.8124 2.06481 49.5916 1.36823 50.5598 0.895971C51.5279 0.423714 52.5669 0.187586 53.6767 0.187586C53.9128 0.187586 54.1843 0.211198 54.4913 0.258424C54.7983 0.282038 55.0462 0.317457 55.2351 0.364682V2.7732C55.0698 2.72597 54.8455 2.70236 54.5621 2.70236C54.2788 2.67874 54.0781 2.66694 53.96 2.66694C52.8266 2.66694 51.8821 2.93848 51.1265 3.48158C50.3709 4.02468 49.993 4.96919 49.993 6.31512V8.01525H54.633V10.6717H49.993V27H47.3366ZM71.7535 27.425C69.8881 27.425 68.1762 27.0945 66.6177 26.4333C65.0593 25.7485 63.7015 24.804 62.5445 23.5997C61.4111 22.3719 60.5256 20.9315 59.888 19.2786C59.2505 17.6257 58.9317 15.8075 58.9317 13.824C58.9317 11.8405 59.2505 10.0223 59.888 8.36945C60.5256 6.71654 61.4111 5.27616 62.5445 4.04829C63.7015 2.82042 65.0593 1.87591 66.6177 1.21475C68.1762 0.529972 69.8881 0.187586 71.7535 0.187586C73.5481 0.187586 75.1538 0.50636 76.5705 1.14391C78.0109 1.78146 79.2152 2.60791 80.1833 3.62326C81.175 4.615 81.8834 5.66577 82.3085 6.77558L79.652 7.94441C78.9909 6.40958 77.9755 5.18171 76.606 4.26081C75.26 3.31629 73.6425 2.84403 71.7535 2.84403C69.8173 2.84403 68.0935 3.30448 66.5823 4.22539C65.0711 5.14629 63.8904 6.43319 63.0404 8.08609C62.1903 9.71538 61.7653 11.628 61.7653 13.824C61.7653 15.9964 62.1903 17.909 63.0404 19.5619C63.8904 21.2148 65.0711 22.5017 66.5823 23.4227C68.0935 24.3199 69.8173 24.7686 71.7535 24.7686C73.6425 24.7686 75.26 24.3081 76.606 23.3872C77.9755 22.4663 78.9909 21.2385 79.652 19.7036L82.3085 20.8725C81.8834 21.9587 81.175 23.0094 80.1833 24.0248C79.2152 25.0165 78.0109 25.8312 76.5705 26.4687C75.1538 27.1063 73.5481 27.425 71.7535 27.425Z" fill="white"/>
</svg>
