<svg width="60" height="55" viewBox="0 0 60 55" fill="none" xmlns="http://www.w3.org/2000/svg">
<path d="M15.7572 16.9768C15.5589 16.7776 15.4016 16.541 15.2943 16.2805C15.187 16.0201 15.1318 15.7409 15.1318 15.459C15.1318 15.1771 15.187 14.8979 15.2943 14.6375C15.4016 14.3771 15.5589 14.1405 15.7572 13.9412L28.5511 1.06961C28.7492 0.870149 28.9843 0.711916 29.2432 0.603957C29.502 0.495998 29.7795 0.44043 30.0597 0.44043C30.34 0.44043 30.6174 0.495998 30.8763 0.603957C31.1352 0.711916 31.3703 0.870149 31.5684 1.06961L44.3623 13.9412C44.7624 14.3438 44.9872 14.8897 44.9872 15.459C44.9872 16.0283 44.7624 16.5743 44.3623 16.9768C43.9622 17.3793 43.4196 17.6055 42.8537 17.6055C42.2879 17.6055 41.7452 17.3793 41.3451 16.9768L32.1921 7.76554V30.4759C32.1921 31.0449 31.9674 31.5905 31.5675 31.9928C31.1676 32.3952 30.6253 32.6212 30.0597 32.6212C29.4942 32.6212 28.9518 32.3952 28.552 31.9928C28.1521 31.5905 27.9274 31.0449 27.9274 30.4759V7.76554L18.7744 16.9768C18.5764 17.1763 18.3412 17.3345 18.0823 17.4424C17.8235 17.5504 17.546 17.606 17.2658 17.606C16.9856 17.606 16.7081 17.5504 16.4492 17.4424C16.1904 17.3345 15.9552 17.1763 15.7572 16.9768ZM59.9123 32.6212V49.7833C59.9123 50.9213 59.463 52.0126 58.6632 52.8172C57.8635 53.6219 56.7787 54.0739 55.6477 54.0739H4.47181C3.34075 54.0739 2.25602 53.6219 1.45624 52.8172C0.656464 52.0126 0.207153 50.9213 0.207153 49.7833V32.6212C0.207153 31.4833 0.656464 30.3919 1.45624 29.5873C2.25602 28.7827 3.34075 28.3306 4.47181 28.3306H22.5966C22.8794 28.3306 23.1505 28.4436 23.3505 28.6448C23.5504 28.846 23.6628 29.1188 23.6628 29.4033V30.3311C23.6628 33.9378 26.5947 36.9788 30.1824 36.9117C31.8576 36.8794 33.4534 36.1871 34.6266 34.9837C35.7999 33.7802 36.457 32.1616 36.4567 30.4759V29.4033C36.4567 29.1188 36.5691 28.846 36.769 28.6448C36.9689 28.4436 37.2401 28.3306 37.5229 28.3306H55.6477C56.7787 28.3306 57.8635 28.7827 58.6632 29.5873C59.463 30.3919 59.9123 31.4833 59.9123 32.6212ZM49.2507 41.2023C49.2507 40.5658 49.0631 39.9437 48.7116 39.4145C48.3602 38.8853 47.8607 38.4729 47.2762 38.2293C46.6918 37.9858 46.0487 37.922 45.4282 38.0462C44.8078 38.1704 44.2378 38.4768 43.7905 38.9269C43.3432 39.3769 43.0386 39.9503 42.9152 40.5745C42.7918 41.1987 42.8551 41.8457 43.0972 42.4337C43.3393 43.0217 43.7492 43.5243 44.2752 43.8779C44.8012 44.2314 45.4196 44.4202 46.0522 44.4202C46.9005 44.4202 47.714 44.0811 48.3139 43.4777C48.9137 42.8742 49.2507 42.0557 49.2507 41.2023Z" fill="#D6D6D6"/>
</svg>
